<?xml version="1.0" standalone="no"?>
<!DOCTYPE svg PUBLIC "-//W3C//DTD SVG 20010904//EN"
 "http://www.w3.org/TR/2001/REC-SVG-20010904/DTD/svg10.dtd">
<svg version="1.0" xmlns="http://www.w3.org/2000/svg"
 width="2143.000000pt" height="768.000000pt" viewBox="0 0 2143.000000 768.000000"
 preserveAspectRatio="xMidYMid meet">

<g transform="translate(0.000000,768.000000) scale(0.100000,-0.100000)"
fill="#000000" stroke="none">
<path d="M16031 5627 c-47 -18 -105 -69 -125 -110 -14 -31 -16 -86 -16 -456
l0 -420 -752 -3 -753 -3 -65 -23 c-99 -35 -195 -97 -283 -181 -95 -91 -152
-172 -183 -260 -23 -66 -24 -69 -24 -552 0 -461 1 -490 20 -553 54 -172 239
-359 442 -445 l63 -26 689 -3 c460 -2 707 1 741 8 205 42 412 247 493 485 l27
80 0 1166 0 1165 -27 42 c-52 77 -167 119 -247 89z m-143 -1904 l-3 -518 -24
-48 c-13 -27 -46 -71 -73 -98 -82 -82 -66 -80 -739 -77 l-584 3 -45 23 c-57
30 -114 84 -148 142 l-27 45 -3 400 c-2 279 0 412 8 440 16 55 53 107 103 142
88 64 62 62 835 63 l703 0 -3 -517z"/>
<path d="M17136 5609 c-59 -14 -105 -47 -137 -98 -27 -42 -29 -52 -29 -145 0
-114 17 -163 77 -221 61 -59 175 -70 250 -24 20 12 43 42 60 77 25 52 28 67
27 162 0 136 -26 200 -94 235 -36 18 -109 25 -154 14z"/>
<path d="M20630 4855 c0 -12 13 -15 60 -15 l60 0 0 -140 c0 -133 1 -140 20
-140 18 0 20 8 22 138 l3 137 58 3 c42 2 57 7 57 17 0 12 -24 15 -140 15 -118
0 -140 -2 -140 -15z"/>
<path d="M20960 4716 c0 -149 1 -156 20 -156 19 0 20 7 20 122 0 67 3 119 6
116 3 -3 25 -57 48 -119 37 -98 46 -114 67 -117 22 -2 27 7 68 117 24 67 47
118 52 115 5 -3 9 -57 9 -120 0 -107 1 -114 20 -114 19 0 20 7 20 155 l0 155
-34 0 -34 0 -42 -113 c-43 -117 -56 -145 -63 -137 -2 3 -24 59 -49 125 -44
116 -46 120 -77 123 l-31 3 0 -155z"/>
<path d="M18143 4835 c-66 -33 -105 -84 -111 -144 -4 -45 -2 -50 59 -126 121
-153 570 -595 1199 -1180 224 -208 403 -379 660 -630 75 -73 151 -140 170
-150 21 -11 58 -18 90 -19 141 -2 233 127 190 266 -14 46 -31 67 -126 159
-179 173 -1114 1069 -1329 1274 -110 104 -277 264 -370 356 -114 111 -188 175
-223 193 -69 35 -140 35 -209 1z"/>
<path d="M20106 4839 c-137 -73 -474 -380 -596 -543 -36 -47 -44 -66 -44 -98
3 -84 99 -183 193 -195 79 -11 176 60 426 311 188 188 285 313 285 364 -1 37
-24 99 -47 124 -26 30 -92 58 -138 58 -22 0 -58 -9 -79 -21z"/>
<path d="M291 4625 c-19 -9 -53 -31 -76 -50 -80 -65 -75 3 -75 -977 l0 -873
31 -38 c51 -62 113 -92 191 -92 58 0 72 4 109 30 24 17 54 46 66 64 l23 34 0
758 0 759 664 0 664 0 53 -28 c37 -19 64 -43 86 -76 64 -94 63 -86 63 -773 0
-507 3 -630 14 -657 18 -43 77 -91 132 -106 91 -26 167 3 231 87 l28 36 3 661
c3 734 3 738 -62 872 -84 174 -216 292 -391 352 l-80 27 -820 2 c-714 2 -824
1 -854 -12z"/>
<path d="M3620 4633 c-224 -26 -516 -263 -580 -471 -19 -60 -20 -94 -20 -547
0 -457 1 -486 20 -549 54 -172 239 -359 442 -445 l63 -26 855 -3 c579 -2 871
1 906 8 176 37 351 186 450 385 70 142 74 171 74 633 0 459 -5 504 -71 637
-83 169 -229 298 -404 356 l-70 24 -815 1 c-448 1 -831 -1 -850 -3z m1635
-420 c54 -29 99 -78 127 -138 23 -50 23 -53 23 -455 l0 -405 -32 -61 c-44 -84
-118 -149 -186 -164 -37 -8 -270 -10 -792 -8 l-740 3 -45 23 c-57 30 -114 84
-148 142 l-27 45 0 420 0 421 26 49 c28 55 100 116 164 139 34 12 163 14 815
13 774 -2 775 -2 815 -24z"/>
<path d="M6900 4630 c-73 -11 -176 -49 -246 -91 -85 -51 -207 -171 -258 -252
-86 -140 -81 -84 -84 -866 l-3 -694 25 -38 c30 -45 131 -99 185 -99 74 1 170
65 202 135 17 37 19 80 19 665 0 696 -2 680 68 761 69 81 -64 74 1432 74 1511
0 1389 7 1470 -81 79 -86 74 -40 80 -781 l5 -662 30 -31 c65 -68 163 -95 239
-66 26 10 63 37 89 65 38 41 46 56 52 102 3 30 5 333 2 674 -4 695 -1 667 -80
820 -60 116 -182 237 -297 293 -169 83 -41 76 -1540 78 -734 1 -1360 -2 -1390
-6z"/>
<path d="M10935 4631 c-111 -28 -184 -129 -157 -219 13 -43 51 -95 96 -132
l30 -25 891 -5 c842 -5 892 -6 927 -24 48 -23 94 -76 120 -135 19 -43 20 -72
23 -471 l4 -425 -23 -51 c-27 -60 -77 -112 -132 -140 -37 -18 -66 -19 -694
-19 -653 0 -655 0 -695 22 -88 47 -154 147 -155 233 0 89 71 190 159 228 31
13 123 15 627 16 l591 1 37 29 c46 34 86 115 86 172 0 55 -46 143 -89 172
l-35 23 -645 -3 -646 -3 -62 -23 c-174 -65 -324 -217 -396 -401 -42 -108 -49
-256 -17 -362 74 -244 252 -430 465 -484 89 -23 1462 -22 1550 0 102 27 173
72 276 175 82 81 103 109 143 190 75 153 78 177 74 685 l-3 440 -28 80 c-39
109 -103 210 -185 287 -80 75 -149 117 -247 149 l-70 24 -895 2 c-492 1 -908
-2 -925 -6z"/>
<path d="M17130 4626 c-59 -15 -113 -49 -136 -84 -18 -26 -19 -70 -22 -921
l-2 -894 24 -38 c30 -44 131 -99 184 -99 82 0 171 52 198 116 12 28 14 190 14
916 l0 883 -24 35 c-26 40 -102 85 -156 93 -19 3 -55 0 -80 -7z"/>
<path d="M8115 3941 c-22 -10 -53 -32 -69 -49 -26 -28 -30 -41 -37 -119 -4
-48 -8 -307 -8 -574 l-1 -486 30 -41 c42 -58 121 -102 186 -102 83 0 171 67
195 149 7 24 9 219 7 578 l-3 541 -31 39 c-47 58 -98 83 -169 83 -37 0 -75 -7
-100 -19z"/>
<path d="M18665 3477 c-80 -38 -196 -136 -403 -341 -166 -164 -195 -197 -212
-243 -16 -43 -18 -62 -11 -94 20 -87 111 -159 201 -159 40 0 58 8 122 53 195
134 496 438 562 565 47 91 -49 224 -171 238 -27 4 -53 -2 -88 -19z"/>
</g>
</svg>
